# xmcd
#
# Track frame offsets:
#   150
#   15578
#   34137
#   52102
#   69959
#   87492
#   104492
#   117760
#   138127
#   158872
#   174518
#   192383
#   206853
#   224061
#   239536
#   255556
#   274061
#   293052
#   312583
#   327822
#
# Disc length: 4565 seconds
#
# Revision: 0
# Processed by: cddbd v1.5.2PL0 Copyright (c) Steve Scherf et al.
# Submitted via: uFREEDB ActiveX Control 1.5
#
DISCID=3211d314
DTITLE=zeze  - zeze 
DYEAR=1900
DGENRE=Blues
TTITLE0=zeze 
TTITLE1=zeze 
TTITLE2=zeze 
TTITLE3=zeze 
TTITLE4=zeze 
TTITLE5=zeze 
TTITLE6=zeze 
TTITLE7=zeze 
TTITLE8=zeze 
TTITLE9=zeze 
TTITLE10=zeze 
TTITLE11=zeze 
TTITLE12=zeze 
TTITLE13=zeze 
TTITLE14=zeze 
TTITLE15=zeze 
TTITLE16=zeze 
TTITLE17=zeze 
TTITLE18=zeze 
TTITLE19=zeze 
EXTD=
EXTT0=
EXTT1=
EXTT2=
EXTT3=
EXTT4=
EXTT5=
EXTT6=
EXTT7=
EXTT8=
EXTT9=
EXTT10=
EXTT11=
EXTT12=
EXTT13=
EXTT14=
EXTT15=
EXTT16=
EXTT17=
EXTT18=
EXTT19=
PLAYORDER=
